<?xml version="1.0" encoding="utf-8"?>
<!-- Generator: Adobe Illustrator 22.0.0, SVG Export Plug-In . SVG Version: 6.00 Build 0)  -->
<svg version="1.1" id="Layer_1" xmlns="http://www.w3.org/2000/svg" xmlns:xlink="http://www.w3.org/1999/xlink" x="0px" y="0px"
	 viewBox="0 0 35 45" style="enable-background:new 0 0 35 45;" xml:space="preserve">
<style type="text/css">
	.st0{fill:#FFFFFF;}
	.st1{fill:url(#SVGID_1_);}
	.st2{fill:url(#SVGID_2_);}
	.st3{fill:url(#SVGID_3_);}
	.st4{fill:url(#SVGID_4_);}
	.st5{fill:#DC1C2E;}
	.st6{fill:#C51828;}
	.st7{fill:#A51220;}
	.st8{fill:#404041;}
	.st9{fill:#626366;}
	.st10{fill:#003DA5;}
	.st11{fill:#00378C;}
	.st12{fill:#002D6F;}
</style>
<g>
	<g>
		<path class="st0" d="M15.5,40.4c-0.1,0-0.3-0.1-0.4-0.2l-1.8-1.8c-0.7-0.7-1.3-1.4-2-2L11,36.1l-0.2-0.3l-0.2-0.3l-0.2-0.3
			L10,35.1l-0.2-0.3l-0.2-0.3l-0.2-0.3L9,34l-0.2-0.3l-0.2-0.3l-0.2-0.3C8.2,33.2,8,33,8,33c-0.1-0.1-0.2-0.3-0.2-0.3
			c-0.1-0.1-0.2-0.2-0.2-0.2c-3.3-3.6-5.3-6.4-6-8.1v-0.1c0-0.1,0-0.1-0.1-0.2l0,0V24c0,0,0,0,0-0.1l0,0c-0.6-1.6-1-3.5-1.2-5.3
			c-0.2-2.4,0-4.7,0.6-6.7l0,0v-0.1c0.3-1,0.7-2.1,1.3-3.1c1.2-2,2.4-3.2,3.3-3.9C6.2,4,7,3.6,7.6,3.4c0,0,0,0,0.1,0
			c2-1.8,4.2-2.1,5.4-2.1c0.2,0,0.4,0,0.6,0l0,0h0.1c1.2-0.8,2.9-0.9,3.6-0.9c0.1,0,0.1,0,0.2,0l0,0c0,0,0.1,0,0.2,0
			c0.7,0,2.4,0.1,3.6,0.9h0.1l0,0c0.2,0,0.4,0,0.6,0c1.2,0,3.5,0.3,5.4,2.1c0,0,0,0,0.1,0c0.4,0.2,1.2,0.6,2,1.3
			c0.9,0.7,2.1,2,3.3,3.9c0.6,1.1,1.1,2.1,1.3,3.1v0.1c0,0,0,0,0,0.1V12v0.1v0.1c0,0.1,0,0.1,0.1,0.2v0.1c0,0.1,0,0.1,0,0.2v0.1l0,0
			c0,0.1,0,0.2,0.1,0.3v0.1c0,0.1,0,0.3,0.1,0.4l0,0c0.1,0.8,0.2,1.7,0.2,2.5l0,0c0,0.1,0,0.3,0,0.4c0,3.5-0.9,6.4-1.3,7.4V24
			c0,0.1-0.1,0.1-0.1,0.2v0.1v0.1v0.1v0.1c0,0,0,0.1-0.1,0.1v0.1v0.1c0,0,0,0.1-0.1,0.1l0,0c-0.1,0.2-0.2,0.4-0.4,0.7l0,0
			c-0.9,1.6-2.6,3.7-4.8,6.2l0,0c-0.1,0.1-0.2,0.2-0.3,0.3l0,0c-0.1,0.1-0.2,0.2-0.3,0.3l0,0c-0.1,0.1-0.2,0.2-0.3,0.3l0,0
			c-0.1,0.1-0.2,0.2-0.3,0.3l0,0c-0.1,0.1-0.2,0.2-0.3,0.3l0,0c-0.1,0.1-0.2,0.2-0.3,0.3l0,0c0.1,0.2,0,0.3-0.1,0.3l0,0
			c-0.1,0.1-0.2,0.2-0.3,0.3c0,0-0.2,0.2-0.3,0.3l-0.3,0.3c-0.1,0.1-0.3,0.3-0.3,0.3c-2.2,2.3-4.1,4.1-5,5.1
			c-0.1,0.1-0.2,0.2-0.4,0.2L15.5,40.4L15.5,40.4z"/>
		<path class="st0" d="M16.4,44.6c-0.2,0-0.3-0.1-0.3-0.3l-0.6-2.1c-0.2,0-0.3-0.2-0.3-0.4v-0.3c0-0.2,0.2-0.4,0.4-0.4h4.1
			c0.2,0,0.4,0.2,0.4,0.4v0.3c0,0.2-0.1,0.3-0.3,0.4L19,44.3c0,0.2-0.2,0.3-0.3,0.3H16.4z"/>
	</g>
	<g>
		<g>
			<g>
				<path class="st0" d="M2,23.8c0,0.1,0,0.1,0.1,0.3c0.6,1.5,2.1,3.6,4,5.8c2.3,2.7,5,5.6,7.1,7.7c0.8,0.8,1.5,1.5,2.1,2.1l0,0
					l0.1,0.1l0,0h2l0,0h1.9h0.1c3.3-3.2,10.2-10.1,12.7-14.3l0,0c0.1-0.2,0.3-0.4,0.4-0.7c0,0,0,0,0-0.1c0,0,0-0.1,0.1-0.1v-0.1
					v-0.1v-0.1c0,0,0,0,0-0.1s0-0.1,0.1-0.2l0,0l0,0v-0.1c0-0.1,0-0.1,0-0.1c1.1-2.8,2.1-7.5,0.7-12c0,0-3.3-8.9-16.1-8.9
					C6.1,2.6,1.4,11.8,1.4,11.8V12H1.3C0,16.4,0.9,21.1,2,23.8L2,23.8z"/>
				
					<linearGradient id="SVGID_1_" gradientUnits="userSpaceOnUse" x1="16.5" y1="23.78" x2="0.6899" y2="23.78" gradientTransform="matrix(1 0 0 -1 0 45.28)">
					<stop  offset="0" style="stop-color:#FFFFFF"/>
					<stop  offset="0.6214" style="stop-color:#FDFDFE"/>
					<stop  offset="0.845" style="stop-color:#F6F8FC"/>
					<stop  offset="1" style="stop-color:#EBEFF8"/>
				</linearGradient>
				<path class="st1" d="M2,23.8c0,0.1,0,0.1,0.1,0.3c0.6,1.5,2.1,3.6,4,5.8c2.3,2.7,5,5.6,7.1,7.7c0.8,0.8,1.5,1.5,2.1,2.1l0.1,0.1
					l0,0h1.1C10.3,26.2,13,7.7,13.7,3.2C5,4.7,1.4,11.8,1.4,11.8V12H1.3C0,16.4,0.9,21.1,2,23.8L2,23.8z"/>
				
					<linearGradient id="SVGID_2_" gradientUnits="userSpaceOnUse" x1="-4007.1733" y1="2928.0957" x2="-4022.9922" y2="2928.0957" gradientTransform="matrix(-1 0 0 -1 -3988.6733 2949.5957)">
					<stop  offset="0" style="stop-color:#FFFFFF"/>
					<stop  offset="0.6214" style="stop-color:#FDFDFE"/>
					<stop  offset="0.845" style="stop-color:#F6F8FC"/>
					<stop  offset="1" style="stop-color:#EBEFF8"/>
				</linearGradient>
				<path class="st2" d="M21.2,3.2c8.7,1.4,12.4,8.6,12.4,8.6V12l0.1-0.1C35,16.4,34,21.1,33,23.8l0,0c-0.1,0.1-0.1,0.1-0.1,0.3
					c-0.6,1.5-2.1,3.6-4,5.8c-2.3,2.7-5,5.6-7.1,7.7c-0.8,0.8-1.6,1.6-2.2,2.2l0,0h-1.1C24.7,26.2,22,7.7,21.2,3.2z"/>
				
					<linearGradient id="SVGID_3_" gradientUnits="userSpaceOnUse" x1="35.4858" y1="25.1958" x2="16.55" y2="21.1708" gradientTransform="matrix(1 0 0 -1 0 45.28)">
					<stop  offset="0" style="stop-color:#EBEFF8"/>
					<stop  offset="0.155" style="stop-color:#F6F8FC"/>
					<stop  offset="0.3786" style="stop-color:#FDFDFE"/>
					<stop  offset="1" style="stop-color:#FFFFFF"/>
				</linearGradient>
				<path class="st3" d="M28.1,24.3c-2.7,6.8-7.3,13.8-8.2,15.3c2-1.9,5.1-5.1,7.9-8.2c0.4-0.5,0.8-1,1.2-1.5
					c1.8-2.2,3.3-4.2,3.9-5.6v-0.1c0-0.1,0-0.1,0-0.1l0,0c0,0,0-0.1,0.1-0.2c1-2.7,2-7.4,0.7-11.8l-0.1-0.2c0,0-1.9-3.7-6.2-6.3
					C28.4,8.8,30.6,18.1,28.1,24.3z"/>
				
					<linearGradient id="SVGID_4_" gradientUnits="userSpaceOnUse" x1="11.5464" y1="22.7717" x2="1.8775" y2="20.7166" gradientTransform="matrix(1 0 0 -1 0 45.28)">
					<stop  offset="0" style="stop-color:#FFFFFF"/>
					<stop  offset="0.6214" style="stop-color:#FDFDFE"/>
					<stop  offset="0.845" style="stop-color:#F6F8FC"/>
					<stop  offset="1" style="stop-color:#EBEFF8"/>
				</linearGradient>
				<path class="st4" d="M2,23.8c0,0.1,0,0.1,0.1,0.3c0.6,1.5,2.1,3.6,4,5.8c0.6,0.7,1.2,1.5,1.9,2.2c2.6,2.9,5.4,5.7,7.2,7.5
					c-0.9-1.4-5.5-8.5-8.2-15.3C4.4,18.1,6.6,8.8,7.5,5.5c-4.3,2.6-6.2,6.3-6.2,6.3l0,0.2C0,16.4,0.9,21.1,2,23.8L2,23.8z"/>
			</g>
			<g>
				<path class="st5" d="M17.5,0.9c-0.4,0-2.4,0-3.7,1c0,0-3.3-0.5-6,2c-0.6,0-3.2,1.5-5.2,5c-0.6,1-1,2-1.3,3
					c0.4-0.5,1.9-2.6,5.2-2.4C6.8,9.4,8.8,7.2,13,7.9c0.6-0.6,2.7-1.3,4.5-1.3s3.9,0.7,4.5,1.3c4.2-0.8,6.3,1.4,6.5,1.6
					c3.3-0.3,4.8,1.8,5.2,2.3c-0.3-1-0.7-2-1.3-3c-2-3.5-4.6-5-5.2-5c-2.7-2.6-6-2-6-2C19.9,0.9,17.9,0.9,17.5,0.9"/>
				<path class="st6" d="M13.8,1.9c0,0-3.3-0.5-6,2c-0.6,0-3.2,1.5-5.2,5c-0.6,1-1,2-1.3,3c0.4-0.5,1.9-2.6,5.2-2.4
					C6.8,9.4,8.8,7.2,13,7.9C13.4,4.5,13.8,1.9,13.8,1.9z"/>
				<path class="st7" d="M6.5,9.5L6.5,9.5c0.6-3.2,1.3-5.6,1.3-5.6c-0.6,0-3.2,1.5-5.2,5c-0.6,1-1,2-1.3,3C1.7,11.4,3.3,9.2,6.5,9.5
					z"/>
				<path class="st6" d="M21.1,1.9c0,0,3.3-0.5,6,2c0.6,0,3.2,1.5,5.2,5c0.6,1,1,2,1.3,3c-0.4-0.5-2-2.6-5.2-2.3
					c-0.2-0.2-2.3-2.4-6.5-1.6C21.6,4.5,21.1,1.9,21.1,1.9z"/>
				<path class="st7" d="M28.5,9.5L28.5,9.5c-0.6-3.2-1.3-5.6-1.3-5.6c0.6,0,3.2,1.5,5.2,5c0.6,1,1,2,1.3,3
					C33.3,11.4,31.7,9.2,28.5,9.5z"/>
			</g>
			<g>
				<polygon class="st8" points="17.6,41.8 17.5,41.8 15.7,41.8 15.7,41.9 16.4,44.2 17.6,44.2 				"/>
				<polygon class="st9" points="17.5,41.8 17.6,41.8 19.4,41.8 19.4,41.9 18.7,44.2 17.5,44.2 				"/>
				<path class="st9" d="M19.6,41.9h-4.1l0,0v-0.3l0,0h4.1l0,0V41.9L19.6,41.9z"/>
				<polygon class="st8" points="19.3,42 19.3,41.9 15.7,41.9 15.7,42 				"/>
			</g>
			<g>
				<path class="st10" d="M28.7,22c0,0-2.1-2.2-6.2-1.8c-0.2-0.1-1.8-0.9-5-1.1c-3,0.1-4.8,1-5,1.1C8.4,19.9,6.3,22,6.3,22
					c-2.5,0-4.2,1.7-4.3,1.9C2,24,2,24,2.1,24.2c1.5,3.9,9.7,12.1,13.4,15.7h2h2c3.6-3.5,11.8-11.8,13.4-15.7C33,24,33,24,33,23.9
					C32.9,23.7,31.2,22,28.7,22z"/>
				<path class="st11" d="M22.5,20.3c4.1-0.4,6.2,1.8,6.2,1.8c2.5-0.1,4.1,1.7,4.3,1.9c0,0,0,0-0.1,0.2c-1.5,3.9-9.7,12.1-13.4,15.7
					h-1.1C21.3,33.8,22.3,26.6,22.5,20.3L22.5,20.3z"/>
				<path class="st12" d="M28.7,22L28.7,22c2.5-0.1,4.1,1.7,4.3,1.9c0,0.1,0,0.1-0.1,0.3c-1.5,3.9-9.7,12.1-13.4,15.7
					c0,0,5.4-7.9,8.5-15.5C28.3,23.6,28.5,22.8,28.7,22z"/>
				<path class="st11" d="M12.5,20.3C8.4,19.9,6.3,22,6.3,22c-2.5,0-4.2,1.7-4.3,1.9C2,24,2,24,2.1,24.2c1.5,3.9,9.7,12.1,13.4,15.7
					h1.1C13.7,33.8,12.7,26.6,12.5,20.3L12.5,20.3z"/>
				<path class="st12" d="M6.3,22L6.3,22c-2.5,0-4.2,1.7-4.3,1.9C2,24,2,24,2.1,24.2c1.5,3.9,9.7,12.1,13.4,15.7
					c0,0-5.4-7.9-8.5-15.5C6.7,23.6,6.4,22.8,6.3,22z"/>
			</g>
			<g>
				<g>
					<path class="st10" d="M8.5,14L8.5,14c0-0.5-0.2-0.8-0.5-1s-0.8-0.2-1.3,0c-0.6,0.2-1.2,0.4-1.8,0.6c0.1,1.5,0.2,3.1,0.3,4.6
						c0.4-0.2,0.6-0.2,1-0.4c0-0.6,0-0.9-0.1-1.5c0.2-0.1,0.3-0.1,0.6-0.2c0.4,0.5,0.6,0.7,0.9,1.2c0.5-0.1,0.7-0.2,1.2-0.3
						c-0.4-0.5-0.7-0.9-1.1-1.4C8.2,15.3,8.5,14.7,8.5,14z M7.4,14.4L7.4,14.4c0,0.4-0.2,0.8-0.7,0.9c-0.3,0.1-0.4,0.1-0.7,0.2
						c0-0.5,0-0.8,0-1.3c0.3-0.1,0.4-0.1,0.7-0.2C7.1,13.8,7.4,13.9,7.4,14.4z"/>
					<path class="st10" d="M23.3,11.6c-0.6,1.5-1.2,2.9-1.8,4.4c0.4,0,0.6,0.1,1,0.1c0.1-0.4,0.2-0.6,0.4-0.9c0.6,0.1,1,0.2,1.6,0.3
						c0.1,0.4,0.2,0.6,0.3,1.1c0.4,0.1,0.6,0.1,1.1,0.2c-0.5-1.7-1-3.4-1.6-5C23.9,11.7,23.7,11.7,23.3,11.6z M24.2,14.6
						c-0.4-0.1-0.6-0.1-1-0.2c0.2-0.5,0.3-0.8,0.5-1.3C23.9,13.7,24,14,24.2,14.6z"/>
					<path class="st10" d="M29,15.4c0.5-0.6,1-1.2,1.5-1.8c-0.4-0.2-0.7-0.3-1.1-0.4c-0.3,0.5-0.5,0.7-0.9,1.2
						c-0.2-0.6-0.5-1.1-0.7-1.7c-0.5-0.1-0.7-0.2-1.2-0.3c0.4,0.9,0.8,1.8,1.3,2.7c-0.5,0.6-1,1.3-1.5,1.9c0.5,0.1,0.7,0.2,1.1,0.3
						c0.4-0.5,0.5-0.8,0.9-1.3c0.3,0.6,0.5,1.2,0.8,1.8c0.5,0.2,0.7,0.2,1.1,0.4C29.9,17.3,29.5,16.3,29,15.4z"/>
					<path class="st10" d="M10.8,15.7c0-0.4,0-0.6,0-1c0.6-0.1,1.2-0.2,1.9-0.3c0-0.4,0-0.5,0-0.9c-0.6,0.1-1.2,0.2-1.9,0.3
						c0-0.4,0-0.6,0-1c0.7-0.1,1.4-0.3,2.1-0.4c0-0.4,0-0.5,0-0.9c-1.1,0.2-2.1,0.4-3.2,0.6c0.1,1.5,0.1,3.1,0.2,4.6
						c0.6-0.2,1.3-0.3,1.9-0.4c0.2-0.4,0.3-0.6,0.4-1C11.6,15.5,11.4,15.6,10.8,15.7z"/>
					<path class="st10" d="M19.6,11.3c-0.4,0.5-0.7,1-1.1,1.5c-0.4-0.5-0.7-1-1.1-1.5l0,0c-0.4,0.7-0.7,1.4-1.1,2.1
						c0,0.9,0,1.7,0,2.6c0.4,0,0.6,0,1,0c0-1,0-1.9,0-2.9c0.4,0.5,0.7,0.9,1.1,1.4l0,0l0,0c0.4-0.5,0.7-0.9,1.1-1.4c0,1,0,1.9,0,2.9
						c0.4,0,0.6,0,1,0.1c0-1.5,0-3.1,0.1-4.6C20.2,11.3,20,11.3,19.6,11.3z"/>
					<path class="st5" d="M14,16.1c0.8-1.6,1.6-3.2,2.4-4.9c-0.5,0-0.8,0-1.3,0.1c-0.8,1.6-1.6,3.3-2.4,4.9
						C13.2,16.2,13.5,16.1,14,16.1z"/>
				</g>
			</g>
		</g>
	</g>
</g>
</svg>
